<svg width="50px" height="50px" viewBox="0 0 1.5 1.5" id="meteor-icon-kit__regular-dashboard" fill="none" xmlns="http://www.w3.org/2000/svg"><path fill-rule="evenodd" clip-rule="evenodd" d="M0.188 0.125a0.063 0.063 0 0 0 -0.063 0.063v0.188a0.063 0.063 0 0 0 0.063 0.063h0.188a0.063 0.063 0 0 0 0.063 -0.063V0.188a0.063 0.063 0 0 0 -0.063 -0.063zm0 -0.125h0.188a0.188 0.188 0 0 1 0.188 0.188v0.188a0.188 0.188 0 0 1 -0.188 0.188H0.188a0.188 0.188 0 0 1 -0.188 -0.188V0.188a0.188 0.188 0 0 1 0.188 -0.188m0.688 1h0.438a0.188 0.188 0 0 1 0.188 0.188v0.125a0.188 0.188 0 0 1 -0.188 0.188h-0.438a0.188 0.188 0 0 1 -0.188 -0.188v-0.125a0.188 0.188 0 0 1 0.188 -0.188m0 0.125a0.063 0.063 0 0 0 -0.063 0.063v0.125a0.063 0.063 0 0 0 0.063 0.063h0.438a0.063 0.063 0 0 0 0.063 -0.063v-0.125a0.063 0.063 0 0 0 -0.063 -0.063zM0.188 0.688h0.188a0.188 0.188 0 0 1 0.188 0.188v0.438a0.188 0.188 0 0 1 -0.188 0.188H0.188a0.188 0.188 0 0 1 -0.188 -0.188v-0.438a0.188 0.188 0 0 1 0.188 -0.188m0 0.125a0.063 0.063 0 0 0 -0.063 0.063v0.438a0.063 0.063 0 0 0 0.063 0.063h0.188a0.063 0.063 0 0 0 0.063 -0.063v-0.438a0.063 0.063 0 0 0 -0.063 -0.063zM1.313 0a0.188 0.188 0 0 1 0.188 0.188v0.5a0.188 0.188 0 0 1 -0.188 0.188h-0.438a0.188 0.188 0 0 1 -0.188 -0.188V0.188a0.188 0.188 0 0 1 0.188 -0.188zm-0.5 0.188v0.5a0.063 0.063 0 0 0 0.063 0.063h0.438a0.063 0.063 0 0 0 0.063 -0.063V0.188a0.063 0.063 0 0 0 -0.063 -0.063h-0.438a0.063 0.063 0 0 0 -0.063 0.063" fill="#758CA3"/></svg>